<svg xmlns="http://www.w3.org/2000/svg" xmlns:xlink="http://www.w3.org/1999/xlink" width="500" zoomAndPan="magnify" viewBox="0 0 375 374.999991" height="500" preserveAspectRatio="xMidYMid meet" version="1.0"><defs><clipPath id="dceeefd56b"><path d="M 104.734375 94.003906 L 270.257812 94.003906 L 270.257812 280.753906 L 104.734375 280.753906 Z M 104.734375 94.003906 " clip-rule="nonzero"/></clipPath></defs><rect x="-37.5" width="450" fill="#ffffff" y="-37.499999" height="449.999989" fill-opacity="1"/><rect x="-37.5" width="450" fill="#ffffff" y="-37.499999" height="449.999989" fill-opacity="1"/><g clip-path="url(#dceeefd56b)"><path fill="#5271ff" d="M 230.316406 182.804688 C 229.378906 182.804688 228.617188 182.046875 228.617188 181.105469 C 228.617188 172.824219 223.160156 166.082031 216.457031 166.082031 C 209.75 166.082031 204.292969 172.824219 204.292969 181.105469 C 204.292969 182.046875 203.53125 182.804688 202.59375 182.804688 C 201.652344 182.804688 200.894531 182.046875 200.894531 181.105469 C 200.894531 170.949219 207.875 162.683594 216.457031 162.683594 C 225.035156 162.683594 232.015625 170.949219 232.015625 181.105469 C 232.015625 182.046875 231.257812 182.804688 230.316406 182.804688 Z M 169.175781 198.460938 C 170.113281 198.460938 170.875 199.222656 170.875 200.160156 C 170.875 210.441406 177.683594 218.804688 186.054688 218.804688 C 194.425781 218.804688 201.234375 210.441406 201.234375 200.160156 C 201.234375 199.222656 201.996094 198.460938 202.933594 198.460938 C 203.875 198.460938 204.636719 199.222656 204.636719 200.160156 C 204.636719 212.316406 196.300781 222.203125 186.054688 222.203125 C 175.808594 222.203125 167.472656 212.316406 167.472656 200.160156 C 167.472656 199.222656 168.234375 198.460938 169.175781 198.460938 Z M 142.246094 181.105469 C 142.246094 182.046875 141.484375 182.804688 140.546875 182.804688 C 139.605469 182.804688 138.84375 182.046875 138.84375 181.105469 C 138.84375 170.949219 145.828125 162.683594 154.40625 162.683594 C 162.988281 162.683594 169.96875 170.949219 169.96875 181.105469 C 169.96875 182.046875 169.210938 182.804688 168.269531 182.804688 C 167.332031 182.804688 166.570312 182.046875 166.570312 181.105469 C 166.570312 172.824219 161.113281 166.082031 154.40625 166.082031 C 147.703125 166.082031 142.246094 172.824219 142.246094 181.105469 Z M 251.539062 132.824219 L 256.671875 114.761719 C 257.183594 114.835938 257.703125 114.886719 258.234375 114.886719 C 258.585938 114.886719 258.941406 114.871094 259.300781 114.835938 C 262.105469 114.554688 264.628906 113.199219 266.40625 111.023438 C 268.164062 108.867188 268.980469 106.15625 268.695312 103.394531 C 268.113281 97.667969 262.953125 93.480469 257.1875 94.058594 C 254.382812 94.339844 251.859375 95.695312 250.082031 97.871094 C 248.324219 100.027344 247.507812 102.738281 247.789062 105.5 C 248.160156 109.136719 250.382812 112.152344 253.433594 113.71875 L 248.199219 132.140625 C 247.066406 131.988281 245.90625 131.902344 244.730469 131.902344 L 130.265625 131.902344 C 129.625 131.902344 128.996094 131.933594 128.367188 131.976562 L 123.183594 113.71875 C 126.230469 112.152344 128.453125 109.136719 128.824219 105.5 C 129.105469 102.738281 128.292969 100.027344 126.53125 97.871094 C 124.757812 95.695312 122.234375 94.339844 119.429688 94.058594 C 113.675781 93.472656 108.5 97.667969 107.917969 103.394531 C 107.636719 106.15625 108.449219 108.867188 110.210938 111.023438 C 111.984375 113.199219 114.507812 114.554688 117.3125 114.835938 C 117.671875 114.871094 118.027344 114.886719 118.378906 114.886719 C 118.910156 114.886719 119.429688 114.835938 119.945312 114.757812 L 124.96875 132.453125 C 113.425781 134.878906 104.734375 145.074219 104.734375 157.25 L 104.734375 225.671875 C 104.734375 239.03125 115.296875 249.988281 128.5625 250.742188 L 128.5625 278.15625 C 128.5625 279.285156 129.234375 280.304688 130.269531 280.753906 C 130.636719 280.910156 131.023438 280.988281 131.40625 280.988281 C 132.109375 280.988281 132.804688 280.726562 133.335938 280.230469 L 163.390625 252.550781 C 164.71875 251.410156 166.417969 250.785156 168.175781 250.785156 L 244.730469 250.785156 C 258.804688 250.785156 270.257812 239.414062 270.257812 225.4375 L 270.257812 157.25 C 270.257812 145.613281 262.320312 135.792969 251.539062 132.824219 " fill-opacity="1" fill-rule="nonzero"/></g></svg>