<svg xmlns="http://www.w3.org/2000/svg" xmlns:xlink="http://www.w3.org/1999/xlink" width="500" zoomAndPan="magnify" viewBox="0 0 375 374.999991" height="500" preserveAspectRatio="xMidYMid meet" version="1.0"><defs><clipPath id="5f987873cb"><path d="M 63.070312 46.9375 L 311.925781 46.9375 L 311.925781 328.058594 L 63.070312 328.058594 Z M 63.070312 46.9375 " clip-rule="nonzero"/></clipPath></defs><g clip-path="url(#5f987873cb)"><path fill="#5271ff" d="M 251.875 180.449219 C 250.464844 180.449219 249.320312 179.304688 249.320312 177.894531 L 249.320312 177.890625 C 249.320312 165.441406 241.117188 155.308594 231.035156 155.308594 C 220.953125 155.308594 212.75 165.441406 212.75 177.890625 L 212.75 177.894531 C 212.75 179.304688 211.605469 180.449219 210.195312 180.449219 C 208.78125 180.449219 207.636719 179.304688 207.636719 177.894531 C 207.636719 162.621094 218.132812 150.195312 231.035156 150.195312 C 243.9375 150.195312 254.433594 162.621094 254.433594 177.894531 C 254.433594 179.304688 253.289062 180.449219 251.875 180.449219 Z M 159.949219 203.984375 C 161.363281 203.984375 162.507812 205.128906 162.507812 206.542969 C 162.507812 221.996094 172.746094 234.570312 185.332031 234.570312 C 197.914062 234.570312 208.152344 221.996094 208.152344 206.542969 C 208.152344 205.128906 209.296875 203.984375 210.710938 203.984375 C 212.121094 203.984375 213.265625 205.128906 213.265625 206.542969 C 213.265625 224.816406 200.734375 239.679688 185.332031 239.679688 C 169.925781 239.679688 157.394531 224.816406 157.394531 206.542969 C 157.394531 205.128906 158.539062 203.984375 159.949219 203.984375 Z M 119.464844 177.890625 L 119.464844 177.894531 C 119.464844 179.304688 118.320312 180.449219 116.910156 180.449219 C 115.496094 180.449219 114.355469 179.304688 114.355469 177.894531 C 114.355469 162.621094 124.847656 150.195312 137.75 150.195312 C 150.652344 150.195312 161.148438 162.621094 161.148438 177.894531 C 161.148438 179.304688 160.003906 180.449219 158.59375 180.449219 C 157.179688 180.449219 156.039062 179.304688 156.039062 177.894531 L 156.039062 177.890625 C 156.039062 165.441406 147.832031 155.308594 137.75 155.308594 C 127.667969 155.308594 119.464844 165.441406 119.464844 177.890625 Z M 283.785156 105.304688 L 291.496094 78.144531 C 292.269531 78.261719 293.050781 78.335938 293.851562 78.335938 C 294.378906 78.335938 294.914062 78.3125 295.453125 78.257812 C 299.671875 77.832031 303.464844 75.796875 306.132812 72.523438 C 308.78125 69.28125 310.003906 65.210938 309.578125 61.054688 C 308.699219 52.445312 300.941406 46.148438 292.273438 47.019531 C 288.054688 47.445312 284.261719 49.480469 281.59375 52.75 C 278.945312 55.996094 277.722656 60.066406 278.144531 64.222656 C 278.703125 69.691406 282.046875 74.222656 286.628906 76.578125 L 278.765625 104.277344 C 277.054688 104.046875 275.316406 103.914062 273.546875 103.914062 L 101.453125 103.914062 C 100.492188 103.914062 99.542969 103.960938 98.601562 104.03125 L 90.804688 76.578125 C 95.386719 74.222656 98.730469 69.691406 99.289062 64.222656 C 99.710938 60.066406 98.488281 55.996094 95.84375 52.75 C 93.171875 49.480469 89.378906 47.445312 85.160156 47.019531 C 76.511719 46.144531 68.730469 52.445312 67.855469 61.054688 C 67.429688 65.210938 68.65625 69.285156 71.300781 72.527344 C 73.972656 75.796875 77.765625 77.832031 81.984375 78.257812 C 82.519531 78.3125 83.054688 78.335938 83.582031 78.335938 C 84.382812 78.335938 85.164062 78.261719 85.9375 78.144531 L 93.492188 104.746094 C 76.136719 108.394531 63.070312 123.722656 63.070312 142.023438 L 63.070312 244.894531 C 63.070312 264.980469 78.949219 281.453125 98.894531 282.585938 L 98.894531 323.804688 C 98.894531 325.5 99.902344 327.03125 101.460938 327.707031 C 102.011719 327.945312 102.59375 328.058594 103.167969 328.058594 C 104.230469 328.058594 105.273438 327.664062 106.066406 326.921875 L 151.257812 285.308594 C 153.253906 283.59375 155.808594 282.648438 158.449219 282.648438 L 273.546875 282.648438 C 294.707031 282.648438 311.925781 265.554688 311.925781 244.539062 L 311.925781 142.023438 C 311.925781 124.53125 299.992188 109.765625 283.785156 105.304688 " fill-opacity="1" fill-rule="nonzero"/></g></svg>